<svg xmlns="http://www.w3.org/2000/svg" viewBox="0 0 640 512"><!--!Font Awesome Free 6.7.2 by @fontawesome - https://fontawesome.com License - https://fontawesome.com/license/free Copyright 2025 Fonticons, Inc.--><path d="M539.7 237.3c3.1-12.3 4.3-24.8 4.3-37.4C544 107.4 468.6 32 376.1 32c-77.2 0-144.6 53-163 127.8-15.3-13.2-34.9-20.5-55.2-20.5-46.3 0-84 37.7-84 84 0 7.4 .9 15 3.1 22.4-42.9 20.2-70.8 63.7-70.8 111.2C6.2 424.8 61.7 480 129.4 480h381.2c67.7 0 123.2-55.2 123.2-123.2 0-56.4-38.9-106-94.1-119.5zM199.9 401.6c0 8.3-7 15.3-15.3 15.3H153.6c-8.3 0-15.3-7-15.3-15.3V290.6c0-8.3 7-15.3 15.3-15.3h30.9c8.3 0 15.3 7 15.3 15.3v110.9zm89.5 0c0 8.3-7 15.3-15.3 15.3h-30.9c-8.3 0-15.3-7-15.3-15.3V270.1c0-8.3 7-15.3 15.3-15.3h30.9c8.3 0 15.3 7 15.3 15.3v131.5zm89.5 0c0 8.3-7 15.3-15.3 15.3h-30.9c-8.3 0-15.3-7-15.3-15.3V238.8c0-8.3 7-15.3 15.3-15.3h30.9c8.3 0 15.3 7 15.3 15.3v162.7zm87 0c0 8.3-7 15.3-15.3 15.3h-28.5c-8.3 0-15.3-7-15.3-15.3V176.9c0-8.6 7-15.6 15.3-15.6h28.5c8.3 0 15.3 7 15.3 15.6v224.6z"/></svg>